<?xml version="1.0" encoding="utf-8"?>
<!-- Generator: Adobe Illustrator 25.0.0, SVG Export Plug-In . SVG Version: 6.00 Build 0)  -->
<svg version="1.1" id="Layer_1" xmlns="http://www.w3.org/2000/svg" xmlns:xlink="http://www.w3.org/1999/xlink" x="0px" y="0px"
	 viewBox="0 0 50 50" style="enable-background:new 0 0 50 50;" xml:space="preserve">
<style type="text/css">
	.st0{fill:#B50C09;}
</style>
<path class="st0" d="M25,2.1c-6.1,0-11.9,2.4-16.2,6.7C4.5,13.1,2.1,18.9,2.1,25s2.4,11.9,6.7,16.2c4.3,4.3,10.1,6.7,16.2,6.7
	c3,0,6-0.6,8.8-1.7c2.8-1.2,5.3-2.8,7.4-5c2.1-2.1,3.8-4.7,5-7.4c1.2-2.8,1.7-5.8,1.7-8.8s-0.6-6-1.7-8.8c-1.2-2.8-2.8-5.3-5-7.4
	c-2.1-2.1-4.7-3.8-7.4-5C31,2.6,28,2.1,25,2.1L25,2.1z M25,10.1c8.2,0,14.9,6.7,14.9,14.9S33.2,39.9,25,39.9S10.1,33.2,10.1,25
	S16.8,10.1,25,10.1z M25,11.8c-2,0-3.9,0.4-5.6,1.2c1.1,3.2,3.1,7.3,5.6,7.3c2.5,0,4.4-4.1,5.5-7.3C28.9,12.3,27,11.8,25,11.8z
	 M34.6,16c-2.7,2.1-6,5.2-5.2,7.6c0.8,2.4,5.2,2.9,8.6,3c0.1-0.5,0.1-1,0.1-1.6C38.2,21.5,36.8,18.4,34.6,16L34.6,16z M15.3,16
	c-2.2,2.4-3.5,5.5-3.5,9c0,0.5,0,1.1,0.1,1.6c3.4-0.1,7.8-0.7,8.6-3.1C21.3,21.1,18,18.1,15.3,16z M22.2,20.3
	c-0.2,0-0.3,0.1-0.5,0.2c-0.2,0.1-0.3,0.3-0.4,0.6c0,0.2,0,0.5,0.2,0.7c0.1,0.2,0.3,0.3,0.6,0.4c0.2,0,0.5,0,0.7-0.2
	c0.1-0.1,0.2-0.2,0.2-0.3c0.1-0.1,0.1-0.2,0.1-0.3c0-0.1,0-0.2,0-0.3c0-0.1-0.1-0.2-0.1-0.3c-0.1-0.1-0.2-0.2-0.3-0.3
	C22.5,20.3,22.3,20.3,22.2,20.3L22.2,20.3z M27.8,20.3C27.8,20.3,27.8,20.3,27.8,20.3c-0.2,0-0.3,0-0.4,0.1
	c-0.1,0.1-0.2,0.2-0.3,0.3C27,20.7,27,20.9,26.9,21c0,0.1,0,0.2,0,0.3c0,0.1,0.1,0.2,0.1,0.3c0.1,0.1,0.1,0.2,0.2,0.3
	c0.2,0.1,0.4,0.2,0.7,0.2c0.2,0,0.4-0.2,0.6-0.4c0.1-0.2,0.2-0.4,0.2-0.7c0-0.2-0.2-0.4-0.4-0.6C28.2,20.4,28,20.3,27.8,20.3
	L27.8,20.3z M25,21.9c-0.8,0-1.6,0.3-2.2,0.9c-0.6,0.6-0.9,1.4-0.9,2.2s0.3,1.6,0.9,2.2c0.6,0.6,1.4,0.9,2.2,0.9s1.6-0.3,2.2-0.9
	c0.6-0.6,0.9-1.4,0.9-2.2s-0.3-1.6-0.9-2.2C26.6,22.2,25.8,21.9,25,21.9L25,21.9z M20.5,25.6c-0.1,0-0.2,0-0.3,0
	c-0.1,0-0.2,0.1-0.3,0.2c-0.1,0.1-0.2,0.2-0.2,0.3c-0.1,0.1-0.1,0.2-0.1,0.3c0,0.1,0,0.2,0,0.3c0.1,0.2,0.2,0.4,0.4,0.5
	c0.2,0.1,0.4,0.1,0.7,0.1c0.1,0,0.2-0.1,0.3-0.2c0.1-0.1,0.2-0.2,0.2-0.3c0.1-0.1,0.1-0.2,0.1-0.3c0-0.1,0-0.2,0-0.3
	c-0.1-0.2-0.2-0.3-0.3-0.4C20.9,25.6,20.7,25.6,20.5,25.6L20.5,25.6z M29.5,25.6c-0.2,0-0.4,0-0.5,0.2c-0.2,0.1-0.3,0.3-0.3,0.5
	c0,0.1,0,0.2,0,0.3c0,0.1,0,0.2,0.1,0.3c0.1,0.1,0.1,0.2,0.2,0.3c0.1,0.1,0.2,0.1,0.3,0.2c0.2,0.1,0.5,0.1,0.7-0.1
	c0.2-0.1,0.4-0.3,0.4-0.5c0-0.1,0-0.2,0-0.3c0-0.1,0-0.2-0.1-0.3c-0.1-0.1-0.1-0.2-0.2-0.3c-0.1-0.1-0.2-0.1-0.3-0.2
	C29.7,25.6,29.6,25.6,29.5,25.6L29.5,25.6z M20.5,28.3c-2.1,0-4.9,1.6-7.1,3.1c1.9,3.3,5.1,5.8,9,6.5c1-3.3,1.8-7.7-0.2-9.2
	C21.8,28.4,21.2,28.3,20.5,28.3z M29.4,28.3c-0.6,0-1.2,0.1-1.7,0.5c-2,1.5-1.2,5.9-0.2,9.1c3.9-0.8,7.1-3.2,9-6.5
	C34.4,29.9,31.6,28.3,29.4,28.3L29.4,28.3z M25,28.9c-0.2,0-0.5,0.1-0.6,0.3c-0.2,0.2-0.3,0.4-0.3,0.6c0,0.2,0.1,0.5,0.3,0.6
	c0.2,0.2,0.4,0.3,0.6,0.3s0.5-0.1,0.6-0.3c0.2-0.2,0.3-0.4,0.3-0.6c0-0.2-0.1-0.5-0.3-0.6C25.5,29,25.2,28.9,25,28.9z"/>
</svg>
